<?xml version="1.0" encoding="utf-8"?>
<!-- Generator: Adobe Illustrator 22.1.0, SVG Export Plug-In . SVG Version: 6.00 Build 0)  -->
<svg version="1.1" id="Layer_1" xmlns="http://www.w3.org/2000/svg" xmlns:xlink="http://www.w3.org/1999/xlink" x="0px" y="0px"
	 width="200px" height="200px" viewBox="0 0 200 200" enable-background="new 0 0 200 200" xml:space="preserve">
<g>
	<path fill="#231F20" d="M148.3,171.2c0,0-5.1-0.7-14.6,19.1c-0.7,1.6-0.5,3,1.5,3.3c2.6,0.4,6.6-1.6,13.6-4.3
		c1.4-0.5,1.9-2,1.9-3.5C150.8,180.3,151.9,171.2,148.3,171.2z"/>
	<path fill="#231F20" d="M88.9,112.3L88.9,112.3l0.2,0c0,0,0,0,0.1,0L88.9,112.3z"/>
	<path fill="#231F20" d="M57.9,92.2l0.1,0.1c0.2,0.4,0.6,0.6,1.1,0.7l0,0c2.5,0.2,4.8,0.7,7.1,1.5l0.2,0.1c4.9,1.7,9.9,4.1,10,4.2
		c0.1,0.1,0.3,0.1,0.5,0.2c0.3,0,0.7-0.1,0.9-0.3c0.4-0.4,0.4-0.9,0.2-1.4l-36.7-39c-0.4-0.6-2.5-0.7-3.9-0.7c-0.6,0-1,0.7-0.7,1.2
		L57.9,92.2z"/>
	<path fill="#231F20" d="M47.1,59.8l33,25.9c0.7,0.5,1.2,0.4,1.4,0.3c0.5-0.2,0.7-0.8,0.6-1.3l-1.1-4l0-0.1
		c-0.1-0.2-0.2-0.3-0.3-0.4l-0.1-0.1c-3.3-2.8-28.7-21.5-29.5-21.9c-0.4-0.2-0.8-0.3-1.3-0.3c-0.6,0.1-1.6,0.2-2.3,0.3l0,0
		c-0.4,0.1-0.7,0.4-0.7,0.9C46.8,59.4,46.9,59.6,47.1,59.8L47.1,59.8z"/>
	<path fill="#231F20" d="M102,63.9L102,63.9c0.2,0.6,0.7,0.9,1.3,0.9l0.1,0c2.6,0.2,5.1,0.6,7.5,1.2c0.1,0,0.3,0.1,0.4,0.1
		c3.8,1,7.3,2.5,10.5,4.5l0,0c0.1,0.1,0.3,0.1,0.5,0.1c0.5,0,0.8-0.4,0.8-0.8c0-0.2-0.1-0.3-0.2-0.5l0,0c-0.2-0.3-0.5-0.5-0.5-0.5
		l-9.8-9.9l0,0c-0.1-0.1-0.2-0.2-0.3-0.4l0,0L87.9,8.3c-0.2-0.5-0.6-0.8-1.1-1.1c-1.5-0.7-3.3-1.6-4.7-2.1c-0.5-0.2-0.9,0.4-0.8,0.9
		C83.3,12.6,99.2,56.4,102,63.9z"/>
	<path fill="#231F20" d="M95.4,12.6l25.3,47l0,0.1c0.2,0.4,0.6,0.6,1,0.6c0.5,0,0.9-0.3,1.1-0.8l0-0.1l1-4.5l0,0c0-0.1,0-0.1,0-0.2
		c0-0.2,0-0.4-0.1-0.5l0,0L99.9,13.2c-0.1-0.2-1.8-1.1-3.3-1.8l0,0c-0.1-0.1-0.3-0.1-0.4-0.1c-0.5,0-0.9,0.4-0.9,0.9
		C95.3,12.3,95.4,12.5,95.4,12.6L95.4,12.6z"/>
	<path fill="#231F20" d="M67.5,120.3c0.1-0.5-0.1-1-0.5-1.2l-13.8-8.7c-0.2-0.1-0.5-0.2-0.8-0.2c0,0-27,0.6-28.1,0.6
		c-1.2,0-4.2,0-4.2,4.3c0,0.9-0.5,3.2,1.7,3.5c0.4,0.1,1.1,0.1,1.5-0.3c0.8-0.7,0-2.3,1.5-2.2l41.7,5
		C67,121.1,67.4,120.8,67.5,120.3z"/>
	<path fill="#231F20" d="M54.8,128.1L54.8,128.1c-3.5-1-28.4-8.1-28.4-8.1c-0.7-0.1-0.9,0.1-1.1,0.4c-0.2,0.3,0.1,1,0.3,1.3l1.9,2.7
		c0.2,0.4,0.7,0.4,1.1,0.5c0.6,0.1,22.3,4.8,25.8,5.4l0.1,0c0.6,0,1.1-0.5,1.1-1.1C55.6,128.7,55.3,128.2,54.8,128.1z"/>
	<path fill="#231F20" d="M179.7,107l-9.6,6.4c-0.2,0.1-0.4,0.3-0.4,0.6l0,2.6c0,0.2,0.1,0.4,0.3,0.5c0.1,0,0.2,0.1,0.3,0.1
		c0.1,0,0.3,0,0.4-0.1l9-7.4c0.1-0.1,0.2-0.2,0.3-0.3l0.6-1.6c0.1-0.2,0-0.5-0.2-0.7C180.2,106.9,179.9,106.9,179.7,107z"/>
	<path fill="#231F20" d="M181.9,102.5c-0.1-0.2-0.3-0.3-0.6-0.3c-4.8,0-11.7,1-13.1,0.9l-0.1,0c-0.5,0-0.8,0.4-0.8,0.8
		c0,0.1,0,0.2,0,0.2l0,0l1.6,5.9l0,0.1c0.1,0.3,0.3,0.4,0.6,0.4c0.3,0,0.6-0.3,0.6-0.6l0,0c0.2-1.7,1.2-3.1,2.7-3.9l0,0
		c2.4-1.1,5-1.7,7.8-1.7c0,0,0,0,0,0c0.2,0,0.4-0.1,0.6-0.3l0,0l0.6-0.9C182,102.9,182,102.7,181.9,102.5z"/>
	<path fill="#231F20" d="M165.5,57.7L165.5,57.7c-0.1-0.2-0.4-0.3-0.6-0.3c-0.4,0-0.7,0.3-0.7,0.6l0,0c-0.3,1.6-0.7,3.7-0.7,3.8
		c-4.6,24.8-4.7,25.8-4.1,27c0.1,0.2,1.3,1.8,2.2,3.1l0,0.1c0.1,0.2,0.3,0.3,0.6,0.3c0.4,0,0.7-0.3,0.7-0.7l0,0l4.3-29.9
		c0.1-0.6,0-1.1-0.3-1.7C166.6,59.2,166,58.3,165.5,57.7z"/>
	<path fill="#231F20" d="M145.9,76c3.5,2.3,9.2,9.2,9.3,9.3c0.2,0.2,0.4,0.3,0.7,0.2c0,0,0,0,0,0c0.4-0.1,0.7-0.4,0.6-0.8
		c0-0.1,0-0.2-0.1-0.3c-0.6-3.4-1-7.7-1.1-8.7l0,0c0-0.2,0-0.3,0-0.4c0-0.3,0-0.5,0.1-0.8l0,0l8.7-22.8c0.2-0.4,0.1-0.9-0.1-1.2
		l-0.8-1.2l0,0c-0.1-0.2-0.4-0.3-0.6-0.3c-0.3,0-0.5,0.1-0.6,0.4l-16.3,25.4c-0.1,0.2-0.2,0.4-0.1,0.7
		C145.6,75.7,145.7,75.9,145.9,76z"/>
	<path fill="#231F20" d="M162.4,106.6c-0.3,0-0.6,0.1-0.9,0.2l0,0l-2.8,1l-0.1,0c-0.6,0.2-1.3,0.3-2,0.3c-2.2,0-4.4-1.2-5.8-2.9
		c-1.8-2.1-5.2-9.1-5.2-9.1c-0.4-0.7-1.1-1.1-1.8-1.1c-1.1,0-2.1,0.9-2.1,2.1c0,0.1,0,0.1,0,0.2l1,6.4l0,0.2c0.1,0.3,0.1,0.7,0.1,1
		c0,3.6-2.9,6.6-6.4,6.7l0,0l-47.3,0.8c-2.6,0-4.7,2.1-4.7,4.7c0,0.6,0.1,1.1,0.3,1.6l0.1,0.3l6.8,18.5l0,0c2.1,4.8,4.3,7,10.3,7
		c6,0,7.8,1.6,8.2,3.7c0,0,0.6,4,3.3,5.7c1.8,1.1,5.1,2.2,9.1,1.9c1.4,0,7.3-1.2,7.6-1.3c4.7-0.7,2.4,5.2,2.4,5.2
		c-2.8,7.9-8.4,11.6-11.3,13l0,0c-0.1,0-0.2,0.1-0.3,0.1c-1,0.5-2,0.7-3.1,0.7h0c-12.9,0-35.3-10.2-44.4-18.4l-6.5-5.4
		c-1.1-0.7-2.5,0.1-2.3,1.4c1.2,11,2.2,14.6,2.2,14.6c0.2,0.8,0.6,2.6,3.1,2.8l0,0c0.6,0,1.1-0.4,1.1-1.1l0-0.1
		c-0.1-0.6-0.2-1.2-0.4-2.1c0,0-0.2-1.1-0.3-2.4l0-0.2c0-0.4,0.3-0.8,0.8-0.8c0.2,0,0.3,0.1,0.5,0.2l0.1,0.1
		c3.9,3.3,23.1,20.5,48.6,22.2c5.5,0.4,13.4-8.1,18.9-14.8c3.8-4.5,6.4-6.4,8.6-6.6c5-0.6,6.1,3.2,6.1,6.3c0,1.3,0,2.5,0.8,2.7
		c1.2,0.2,1.7-0.4,2.7-2.6l5.8-13.3c0,0,1-2.3,0.1-2.9c-0.8-0.5-1.5-0.1-2.9,0.3c-2.8,0.9-4.5,0.5-4.7,0.5c-2-0.3-5.4-4.1-1.5-5.2
		c4.2-1.2,5.7-3,7.1-5.3c2.1-3,1.7-8.3,1.9-10.6c0,0,1.2-18,1.2-18.6v-0.1l0.3-5.3l0-0.1C165,107.7,163.8,106.6,162.4,106.6z"/>
</g>
</svg>
